<svg width="16" height="16" viewBox="0 0 16 16" fill="none" xmlns="http://www.w3.org/2000/svg">
<path d="M6 1C6.13261 1 6.25979 1.05268 6.35355 1.14645C6.44732 1.24021 6.5 1.36739 6.5 1.5V2H8.5C8.89782 2 9.27936 2.15804 9.56066 2.43934C9.84196 2.72064 10 3.10218 10 3.5V4.083C9.88133 4.125 9.769 4.18367 9.663 4.259C9.423 4.429 9.243 4.669 9.133 4.97L8.783 6.042C8.72419 6.21908 8.62489 6.38001 8.493 6.512C8.363 6.643 8.202 6.753 8.042 6.803L6.951 7.153C6.75401 7.22257 6.57467 7.33446 6.42557 7.48079C6.27647 7.62713 6.16125 7.80435 6.088 8H3.5C3.10218 8 2.72064 7.84196 2.43934 7.56066C2.15804 7.27936 2 6.89782 2 6.5V3.5C2 3.10218 2.15804 2.72064 2.43934 2.43934C2.72064 2.15804 3.10218 2 3.5 2H5.5V1.5C5.5 1.36739 5.55268 1.24021 5.64645 1.14645C5.74021 1.05268 5.86739 1 6 1ZM6.97 9.848C6.75937 9.77781 6.56845 9.65853 6.413 9.5H2.5C2.10218 9.5 1.72064 9.65804 1.43934 9.93934C1.15804 10.2206 1 10.6022 1 11V11.35C1 12.655 1.6 13.6 2.554 14.193C3.479 14.768 4.71 15 6 15C7.297 15 8.528 14.769 9.452 14.193C9.66267 14.063 9.854 13.9153 10.026 13.75C9.97511 13.4806 10.0094 13.202 10.124 12.953C9.964 12.913 9.814 12.843 9.674 12.743C9.43622 12.5689 9.25501 12.3285 9.153 12.052L8.793 10.96C8.703 10.73 8.613 10.6 8.503 10.49C8.36872 10.3603 8.20807 10.2611 8.032 10.199L6.97 9.848ZM4.5 5.75C4.69891 5.75 4.88968 5.67098 5.03033 5.53033C5.17098 5.38968 5.25 5.19891 5.25 5C5.25 4.80109 5.17098 4.61032 5.03033 4.46967C4.88968 4.32902 4.69891 4.25 4.5 4.25C4.30109 4.25 4.11032 4.32902 3.96967 4.46967C3.82902 4.61032 3.75 4.80109 3.75 5C3.75 5.19891 3.82902 5.38968 3.96967 5.53033C4.11032 5.67098 4.30109 5.75 4.5 5.75ZM8.25 5C8.25 4.80109 8.17098 4.61032 8.03033 4.46967C7.88968 4.32902 7.69891 4.25 7.5 4.25C7.30109 4.25 7.11032 4.32902 6.96967 4.46967C6.82902 4.61032 6.75 4.80109 6.75 5C6.75 5.19891 6.82902 5.38968 6.96967 5.53033C7.11032 5.67098 7.30109 5.75 7.5 5.75C7.69891 5.75 7.88968 5.67098 8.03033 5.53033C8.17098 5.38968 8.25 5.19891 8.25 5ZM10.878 5.282L11.226 6.353C11.3339 6.67876 11.5166 6.97475 11.7593 7.21732C12.002 7.45989 12.2982 7.64231 12.624 7.75L13.696 8.098L13.717 8.104C13.7996 8.13308 13.8711 8.18708 13.9218 8.25855C13.9724 8.33001 13.9995 8.41543 13.9995 8.503C13.9995 8.59057 13.9724 8.67599 13.9218 8.74745C13.8711 8.81892 13.7996 8.87292 13.717 8.902L12.646 9.25C12.32 9.35756 12.0237 9.53992 11.7807 9.78249C11.5378 10.0251 11.355 10.3211 11.247 10.647L10.899 11.717C10.8699 11.7996 10.8159 11.8711 10.7445 11.9218C10.673 11.9724 10.5876 11.9995 10.5 11.9995C10.4124 11.9995 10.327 11.9724 10.2555 11.9218C10.1841 11.8711 10.1301 11.7996 10.101 11.717L9.753 10.647C9.62795 10.2681 9.40223 9.93043 9.1 9.67C8.88145 9.48024 8.6276 9.33548 8.353 9.244L7.281 8.896C7.1984 8.86692 7.12685 8.81292 7.07624 8.74145C7.02564 8.66999 6.99846 8.58457 6.99846 8.497C6.99846 8.40943 7.02564 8.32401 7.07624 8.25255C7.12685 8.18108 7.1984 8.12708 7.281 8.098L8.353 7.75C8.67495 7.63953 8.96688 7.45587 9.20582 7.21346C9.44475 6.97105 9.62419 6.67651 9.73 6.353L10.078 5.283C10.1069 5.20005 10.1608 5.12814 10.2324 5.07725C10.304 5.02637 10.3897 4.99903 10.4775 4.99903C10.5653 4.99903 10.651 5.02637 10.7226 5.07725C10.7942 5.12814 10.8481 5.20005 10.877 5.283M15.782 13.214L15.017 12.966C14.7843 12.8887 14.5728 12.7582 14.3992 12.585C14.2257 12.4118 14.0948 12.2005 14.017 11.968L13.769 11.203C13.7483 11.1439 13.7098 11.0928 13.6587 11.0565C13.6076 11.0203 13.5466 11.0009 13.484 11.0009C13.4214 11.0009 13.3604 11.0203 13.3093 11.0565C13.2582 11.0928 13.2197 11.1439 13.199 11.203L12.949 11.968C12.8729 12.1987 12.7446 12.4088 12.5741 12.5819C12.4037 12.755 12.1956 12.8864 11.966 12.966L11.201 13.214C11.157 13.2297 11.1172 13.2553 11.0847 13.2889C11.0522 13.3226 11.028 13.3632 11.0139 13.4078C10.9997 13.4523 10.9961 13.4995 11.0032 13.5457C11.0104 13.5919 11.0281 13.6358 11.055 13.674C11.091 13.724 11.142 13.764 11.201 13.784L11.966 14.033C12.1991 14.1107 12.4109 14.2418 12.5845 14.4157C12.7581 14.5897 12.8887 14.8017 12.966 15.035L13.214 15.799C13.2347 15.8581 13.2732 15.9092 13.3243 15.9455C13.3754 15.9817 13.4364 16.0011 13.499 16.0011C13.5616 16.0011 13.6226 15.9817 13.6737 15.9455C13.7248 15.9092 13.7633 15.8581 13.784 15.799L14.033 15.035C14.1106 14.8024 14.2412 14.591 14.4146 14.4176C14.588 14.2442 14.7994 14.1136 15.032 14.036L15.797 13.788C15.8561 13.7673 15.9072 13.7288 15.9435 13.6777C15.9797 13.6266 15.9991 13.5656 15.9991 13.503C15.9991 13.4404 15.9797 13.3794 15.9435 13.3283C15.9072 13.2772 15.8561 13.2387 15.797 13.218L15.782 13.214Z" fill="black"/>
</svg>
