<svg width="38" height="38" viewBox="0 0 38 38" fill="none" xmlns="http://www.w3.org/2000/svg">
<circle cx="19" cy="19" r="18" stroke="#CF0202" stroke-width="2"/>
<path fill-rule="evenodd" clip-rule="evenodd" d="M18.8824 21.0044L24.1854 26.3074C24.4668 26.5888 24.8485 26.7469 25.2464 26.7469C25.6444 26.7469 26.026 26.5888 26.3074 26.3074C26.5888 26.026 26.7469 25.6444 26.7469 25.2464C26.7469 24.8485 26.5888 24.4668 26.3074 24.1854L21.0024 18.8824L26.3064 13.5794C26.4457 13.4401 26.5561 13.2747 26.6315 13.0927C26.7068 12.9107 26.7456 12.7156 26.7455 12.5186C26.7455 12.3216 26.7067 12.1265 26.6312 11.9445C26.5558 11.7625 26.4452 11.5972 26.3059 11.4579C26.1666 11.3187 26.0012 11.2082 25.8192 11.1329C25.6371 11.0575 25.4421 11.0188 25.2451 11.0188C25.0481 11.0189 24.853 11.0577 24.671 11.1331C24.489 11.2086 24.3237 11.3191 24.1844 11.4584L18.8824 16.7614L13.5794 11.4584C13.4411 11.3151 13.2757 11.2008 13.0927 11.1221C12.9097 11.0434 12.7129 11.0019 12.5137 11.0001C12.3146 10.9982 12.117 11.0361 11.9327 11.1114C11.7483 11.1868 11.5807 11.2981 11.4398 11.4388C11.2989 11.5796 11.1875 11.747 11.112 11.9313C11.0365 12.1157 10.9984 12.3132 11.0001 12.5123C11.0017 12.7115 11.043 12.9083 11.1215 13.0914C11.2 13.2744 11.3142 13.44 11.4574 13.5784L16.7624 18.8824L11.4584 24.1864C11.3152 24.3249 11.201 24.4904 11.1225 24.6735C11.044 24.8565 11.0027 25.0534 11.0011 25.2525C10.9994 25.4517 11.0375 25.6492 11.113 25.8335C11.1885 26.0178 11.2999 26.1853 11.4408 26.326C11.5817 26.4668 11.7493 26.5781 11.9337 26.6534C12.118 26.7288 12.3156 26.7666 12.5147 26.7648C12.7139 26.763 12.9107 26.7215 13.0937 26.6428C13.2767 26.5641 13.4421 26.4498 13.5804 26.3064L18.8824 21.0044Z" fill="#CF0202"/>
</svg>
