<svg width="109" height="109" viewBox="0 0 109 109" fill="none" xmlns="http://www.w3.org/2000/svg">
<path d="M54.5 99.9166C48.2174 99.9166 42.3132 98.7237 36.7875 96.3378C31.2618 93.9519 26.4552 90.7167 22.3677 86.6323C18.2802 82.5478 15.045 77.7412 12.6622 72.2125C10.2793 66.6838 9.08636 60.7796 9.08333 54.5C9.08031 48.2204 10.2733 42.3162 12.6622 36.7875C15.0511 31.2588 18.2863 26.4522 22.3677 22.3677C26.4492 18.2832 31.2558 15.048 36.7875 12.6621C42.3193 10.2763 48.2234 9.08331 54.5 9.08331C60.7766 9.08331 66.6808 10.2763 72.2125 12.6621C77.7443 15.048 82.5509 18.2832 86.6323 22.3677C90.7137 26.4522 93.9504 31.2588 96.3424 36.7875C98.7343 42.3162 99.9258 48.2204 99.9167 54.5C99.9076 60.7796 98.7146 66.6838 96.3378 72.2125C93.961 77.7412 90.7259 82.5478 86.6323 86.6323C82.5387 90.7167 77.7321 93.9534 72.2125 96.3423C66.6929 98.7313 60.7887 99.9227 54.5 99.9166ZM59.0417 90.4927C68.0493 89.3573 75.6006 85.4015 81.6955 78.6253C87.7904 71.8491 90.8364 63.8074 90.8333 54.5C90.8303 45.1926 87.7829 37.1508 81.691 30.3746C75.5991 23.5985 68.0493 19.6427 59.0417 18.5073V90.4927Z" fill="black"/>
</svg>
