<svg width="24" height="24" viewBox="0 0 24 24" fill="none" xmlns="http://www.w3.org/2000/svg">
<path fill-rule="evenodd" clip-rule="evenodd" d="M1.606 6.08C1.72675 6.0283 1.8565 6.0009 1.98784 5.99936C2.11918 5.99781 2.24953 6.02216 2.37146 6.07101C2.49339 6.11985 2.6045 6.19224 2.69845 6.28403C2.7924 6.37583 2.86734 6.48523 2.919 6.606L2 7L2.92 6.606L2.923 6.614L2.944 6.659L3.038 6.853C3.124 7.025 3.257 7.277 3.438 7.582C3.91526 8.38377 4.47497 9.13351 5.108 9.819C5.29773 10.0231 5.49452 10.2206 5.698 10.411C7.18 11.8 9.251 13 12 13C13.1018 13.005 14.1945 12.8007 15.22 12.398C16.447 11.915 17.474 11.188 18.316 10.4C19.4421 9.33147 20.3677 8.06988 21.049 6.675L21.076 6.617L21.081 6.606C21.188 6.36601 21.3851 6.17776 21.6297 6.08195C21.8744 5.98614 22.1469 5.99047 22.3884 6.094C22.6299 6.19753 22.821 6.39195 22.9202 6.63522C23.0195 6.87849 23.0191 7.15106 22.919 7.394L22.917 7.399L22.913 7.407L22.902 7.433L22.862 7.52C22.6399 7.98257 22.3925 8.43258 22.121 8.868C21.6212 9.67094 21.0484 10.4261 20.41 11.124L21.207 11.921C21.3946 12.1085 21.5001 12.3629 21.5002 12.6281C21.5003 12.8934 21.395 13.1479 21.2075 13.3355C21.02 13.5231 20.7656 13.6286 20.5004 13.6287C20.2351 13.6288 19.9806 13.5235 19.793 13.336L18.953 12.496C18.3619 12.9738 17.7267 13.3944 17.056 13.752L17.838 14.954C17.9118 15.064 17.963 15.1876 17.9886 15.3176C18.0142 15.4475 18.0137 15.5813 17.9872 15.7111C17.9607 15.8409 17.9086 15.9641 17.8341 16.0736C17.7596 16.1831 17.664 16.2767 17.553 16.349C17.442 16.4213 17.3177 16.4708 17.1874 16.4946C17.0571 16.5184 16.9233 16.5161 16.7939 16.4879C16.6645 16.4596 16.542 16.4059 16.4335 16.3298C16.325 16.2538 16.2327 16.157 16.162 16.045L15.176 14.531C14.497 14.739 13.772 14.886 13 14.955V16.5C13 16.7652 12.8946 17.0196 12.7071 17.2071C12.5196 17.3946 12.2652 17.5 12 17.5C11.7348 17.5 11.4804 17.3946 11.2929 17.2071C11.1054 17.0196 11 16.7652 11 16.5V14.956C10.225 14.886 9.5 14.739 8.823 14.531L7.838 16.045C7.6901 16.2595 7.46434 16.4078 7.20875 16.4583C6.95317 16.5089 6.68795 16.4577 6.46954 16.3156C6.25113 16.1736 6.09679 15.9519 6.03935 15.6978C5.98191 15.4437 6.02591 15.1772 6.162 14.955L6.944 13.752C6.244 13.382 5.612 12.952 5.047 12.495L4.207 13.335C4.0184 13.5172 3.7658 13.618 3.5036 13.6157C3.2414 13.6134 2.99059 13.5082 2.80518 13.3228C2.61977 13.1374 2.5146 12.8866 2.51233 12.6244C2.51005 12.3622 2.61084 12.1096 2.793 11.921L3.59 11.124C2.88254 10.3502 2.25596 9.50613 1.72 8.605C1.50655 8.24502 1.30936 7.87565 1.129 7.498L1.096 7.426L1.086 7.405L1.084 7.398L1.083 7.396C1.08 7.396 1.08 7.394 2 7L1.081 7.395C1.02912 7.27426 1.00154 7.14448 0.999854 7.01307C0.998163 6.88167 1.02239 6.75122 1.07115 6.62918C1.11991 6.50715 1.19224 6.39592 1.28401 6.30186C1.37579 6.2078 1.4852 6.13175 1.606 6.08Z" fill="black"/>
</svg>
