<svg width="24" height="24" viewBox="0 0 24 24" fill="none" xmlns="http://www.w3.org/2000/svg">
<path d="M1 17.2C1 16.6333 1.146 16.1127 1.438 15.638C1.73 15.1633 2.11733 14.8007 2.6 14.55C3.63333 14.0333 4.68333 13.646 5.75 13.388C6.81667 13.13 7.9 13.0007 9 13C10.1 12.9993 11.1833 13.1287 12.25 13.388C13.3167 13.6473 14.3667 14.0347 15.4 14.55C15.8833 14.8 16.271 15.1627 16.563 15.638C16.855 16.1133 17.0007 16.634 17 17.2V18C17 18.55 16.8043 19.021 16.413 19.413C16.0217 19.805 15.5507 20.0007 15 20H3C2.45 20 1.97933 19.8043 1.588 19.413C1.19667 19.0217 1.00067 18.5507 1 18V17.2ZM18.45 20C18.6333 19.7 18.771 19.3793 18.863 19.038C18.955 18.6967 19.0007 18.3507 19 18V17C19 16.2667 18.796 15.5623 18.388 14.887C17.98 14.2117 17.4007 13.6327 16.65 13.15C17.5 13.25 18.3 13.421 19.05 13.663C19.8 13.905 20.5 14.2007 21.15 14.55C21.75 14.8833 22.2083 15.254 22.525 15.662C22.8417 16.07 23 16.516 23 17V18C23 18.55 22.8043 19.021 22.413 19.413C22.0217 19.805 21.5507 20.0007 21 20H18.45ZM9 12C7.9 12 6.95833 11.6083 6.175 10.825C5.39167 10.0417 5 9.1 5 8C5 6.9 5.39167 5.95833 6.175 5.175C6.95833 4.39166 7.9 4 9 4C10.1 4 11.0417 4.39166 11.825 5.175C12.6083 5.95833 13 6.9 13 8C13 9.1 12.6083 10.0417 11.825 10.825C11.0417 11.6083 10.1 12 9 12ZM19 8C19 9.1 18.6083 10.0417 17.825 10.825C17.0417 11.6083 16.1 12 15 12C14.8167 12 14.5833 11.9793 14.3 11.938C14.0167 11.8967 13.7833 11.8507 13.6 11.8C14.05 11.2667 14.396 10.675 14.638 10.025C14.88 9.37499 15.0007 8.7 15 8C14.9993 7.3 14.8787 6.62499 14.638 5.975C14.3973 5.325 14.0513 4.73333 13.6 4.19999C13.8333 4.11666 14.0667 4.06233 14.3 4.037C14.5333 4.01166 14.7667 3.99933 15 4C16.1 4 17.0417 4.39166 17.825 5.175C18.6083 5.95833 19 6.9 19 8Z" fill="white"/>
</svg>
