<svg width="86" height="86" viewBox="0 0 86 86" fill="none" xmlns="http://www.w3.org/2000/svg">
<path opacity="0.5" d="M78.8334 43C78.8334 50.0872 76.7318 57.0152 72.7944 62.908C68.857 68.8007 63.2606 73.3936 56.7129 76.1057C50.1652 78.8178 42.9603 79.5275 36.0093 78.1448C29.0583 76.7622 22.6734 73.3494 17.662 68.338C12.6507 63.3266 9.23787 56.9417 7.85523 49.9908C6.4726 43.0398 7.18222 35.8349 9.89436 29.2872C12.6065 22.7395 17.1993 17.1431 23.0921 13.2057C28.9849 9.26829 35.9129 7.1667 43 7.1667C47.7057 7.1667 52.3654 8.09355 56.7129 9.89434C61.0604 11.6951 65.0106 14.3346 68.338 17.662C71.6655 20.9895 74.3049 24.9397 76.1057 29.2872C77.9065 33.6347 78.8334 38.2943 78.8334 43ZM14.3334 43C14.3334 48.6698 16.0146 54.2122 19.1646 58.9264C22.3145 63.6406 26.7916 67.3149 32.0298 69.4846C37.2679 71.6543 43.0318 72.222 48.5926 71.1159C54.1534 70.0098 59.2613 67.2795 63.2704 63.2704C67.2795 59.2613 70.0098 54.1534 71.1159 48.5926C72.222 43.0318 71.6543 37.2679 69.4846 32.0298C67.3149 26.7916 63.6406 22.3145 58.9264 19.1646C54.2122 16.0146 48.6698 14.3334 43 14.3334C35.3972 14.3334 28.1057 17.3536 22.7296 22.7296C17.3536 28.1057 14.3334 35.3972 14.3334 43Z" fill="black"/>
<path d="M43 14.3333V7.16667C47.7057 7.16667 52.3654 8.09352 56.7129 9.89431C61.0604 11.6951 65.0106 14.3346 68.338 17.662C71.6655 20.9894 74.3049 24.9397 76.1057 29.2872C77.9065 33.6347 78.8334 38.2943 78.8334 43H71.6667C71.6667 35.3971 68.6465 28.1056 63.2704 22.7296C57.8944 17.3536 50.6029 14.3333 43 14.3333Z" fill="black"/>
</svg>
