<svg width="24" height="24" viewBox="0 0 24 24" fill="none" xmlns="http://www.w3.org/2000/svg">
<path d="M17 9.50002C17 8.30002 18 8.00002 18.52 8.00002C19.359 8.00002 20 8.67202 20 9.50002V16C20 20 16.866 22 13 22C9.13397 22 7.80397 21 4.80397 16L3.23297 13.395C2.69697 12.527 3.12597 11.401 4.11397 11.081C4.43707 10.9759 4.78464 10.9725 5.10975 11.0712C5.43486 11.1699 5.72185 11.366 5.93197 11.633L7.99997 14.033M7.99997 14V5.52002" stroke="black" stroke-width="2" stroke-linecap="round" stroke-linejoin="round"/>
<path d="M17 11V7.5C17 7.10218 16.842 6.72064 16.5607 6.43934C16.2794 6.15804 15.8978 6 15.5 6C15.1022 6 14.7206 6.15804 14.4393 6.43934C14.158 6.72064 14 7.10218 14 7.5V11V6.5C14 6.10218 13.842 5.72064 13.5607 5.43934C13.2794 5.15804 12.8978 5 12.5 5C12.1022 5 11.7206 5.15804 11.4393 5.43934C11.158 5.72064 11 6.10218 11 6.5V11V2.5C11 2.10218 10.842 1.72064 10.5607 1.43934C10.2794 1.15804 9.89782 1 9.5 1C9.10218 1 8.72064 1.15804 8.43934 1.43934C8.15804 1.72064 8 2.10218 8 2.5V11" stroke="black" stroke-width="2" stroke-linecap="round" stroke-linejoin="round"/>
</svg>
