<svg width="24" height="24" viewBox="0 0 24 24" fill="none" xmlns="http://www.w3.org/2000/svg">
<path d="M4 14L3.293 13.293L2.586 14L3.293 14.707L4 14ZM21 6C21 5.73478 20.8946 5.48043 20.7071 5.29289C20.5196 5.10536 20.2652 5 20 5C19.7348 5 19.4804 5.10536 19.2929 5.29289C19.1054 5.48043 19 5.73478 19 6H21ZM8.293 8.293L3.293 13.293L4.707 14.707L9.707 9.707L8.293 8.293ZM3.293 14.707L8.293 19.707L9.707 18.293L4.707 13.293L3.293 14.707ZM4 15H14V13H4V15ZM21 8V6H19V8H21ZM14 15C15.8565 15 17.637 14.2625 18.9497 12.9497C20.2625 11.637 21 9.85652 21 8H19C19 9.32608 18.4732 10.5979 17.5355 11.5355C16.5979 12.4732 15.3261 13 14 13V15Z" fill="black"/>
</svg>
