<svg width="24" height="24" viewBox="0 0 24 24" fill="none" xmlns="http://www.w3.org/2000/svg">
<path d="M10.825 22C10.375 22 9.98766 21.85 9.663 21.55C9.33833 21.25 9.14233 20.8833 9.075 20.45L8.85 18.8C8.63333 18.7167 8.42933 18.6167 8.238 18.5C8.04666 18.3833 7.859 18.2583 7.675 18.125L6.125 18.775C5.70833 18.9583 5.29166 18.975 4.875 18.825C4.45833 18.675 4.13333 18.4083 3.9 18.025L2.725 15.975C2.49166 15.5917 2.425 15.1833 2.525 14.75C2.625 14.3167 2.85 13.9583 3.2 13.675L4.525 12.675C4.50833 12.5583 4.5 12.4457 4.5 12.337V11.662C4.5 11.554 4.50833 11.4417 4.525 11.325L3.2 10.325C2.85 10.0417 2.625 9.68333 2.525 9.25C2.425 8.81667 2.49166 8.40833 2.725 8.025L3.9 5.975C4.13333 5.59167 4.45833 5.325 4.875 5.175C5.29166 5.025 5.70833 5.04167 6.125 5.225L7.675 5.875C7.85833 5.74167 8.05 5.61667 8.25 5.5C8.45 5.38333 8.65 5.28333 8.85 5.2L9.075 3.55C9.14166 3.11667 9.33766 2.75 9.663 2.45C9.98833 2.15 10.3757 2 10.825 2H13.175C13.625 2 14.0127 2.15 14.338 2.45C14.6633 2.75 14.859 3.11667 14.925 3.55L15.15 5.2C15.3667 5.28333 15.571 5.38333 15.763 5.5C15.955 5.61667 16.1423 5.74167 16.325 5.875L17.875 5.225C18.2917 5.04167 18.7083 5.025 19.125 5.175C19.5417 5.325 19.8667 5.59167 20.1 5.975L21.275 8.025C21.5083 8.40833 21.575 8.81667 21.475 9.25C21.375 9.68333 21.15 10.0417 20.8 10.325L19.475 11.325C19.4917 11.4417 19.5 11.5543 19.5 11.663V12.337C19.5 12.4457 19.4833 12.5583 19.45 12.675L20.775 13.675C21.125 13.9583 21.35 14.3167 21.45 14.75C21.55 15.1833 21.4833 15.5917 21.25 15.975L20.05 18.025C19.8167 18.4083 19.4917 18.675 19.075 18.825C18.6583 18.975 18.2417 18.9583 17.825 18.775L16.325 18.125C16.1417 18.2583 15.95 18.3833 15.75 18.5C15.55 18.6167 15.35 18.7167 15.15 18.8L14.925 20.45C14.8583 20.8833 14.6627 21.25 14.338 21.55C14.0133 21.85 13.6257 22 13.175 22H10.825ZM12.05 15.5C13.0167 15.5 13.8417 15.1583 14.525 14.475C15.2083 13.7917 15.55 12.9667 15.55 12C15.55 11.0333 15.2083 10.2083 14.525 9.525C13.8417 8.84167 13.0167 8.5 12.05 8.5C11.0667 8.5 10.2373 8.84167 9.562 9.525C8.88666 10.2083 8.54933 11.0333 8.55 12C8.55066 12.9667 8.88833 13.7917 9.563 14.475C10.2377 15.1583 11.0667 15.5 12.05 15.5Z" fill="black"/>
</svg>
