<svg width="24" height="24" viewBox="0 0 24 24" fill="none" xmlns="http://www.w3.org/2000/svg">
<path d="M18.3281 12C18.3281 10.3359 17.3109 8.91094 15.8672 8.31094L15.0984 10.1578C15.8203 10.4578 16.3266 11.1703 16.3266 12.0047C16.3266 12.8344 15.8203 13.5469 15.0984 13.8516L15.8672 15.6984C17.3109 15.0891 18.3281 13.6641 18.3281 12ZM17.4047 4.61719L16.6359 6.46406C18.8062 7.36875 20.3297 9.50625 20.3297 12C20.3297 14.4984 18.8062 16.6313 16.6359 17.5359L17.4047 19.3828C20.2969 18.1781 22.3266 15.3281 22.3266 12C22.3266 8.67188 20.2969 5.82188 17.4047 4.61719ZM2.32968 6.99844V16.9969H6.32812L13.3266 24V0L6.32812 6.99844H2.32968Z" fill="black"/>
</svg>
