<svg width="24" height="24" viewBox="0 0 24 24" fill="none" xmlns="http://www.w3.org/2000/svg">
<path d="M12 2C12.896 2 13.764 2.118 14.59 2.339L12.464 4.464C12.3027 4.62593 12.1605 4.80577 12.04 5H12C10.6155 5 9.26215 5.41054 8.11101 6.17971C6.95986 6.94888 6.06266 8.04213 5.53284 9.32122C5.00303 10.6003 4.86441 12.0078 5.1345 13.3656C5.4046 14.7235 6.07128 15.9708 7.05025 16.9497C8.02922 17.9287 9.2765 18.5954 10.6344 18.8655C11.9922 19.1356 13.3997 18.997 14.6788 18.4672C15.9579 17.9373 17.0511 17.0401 17.8203 15.889C18.5895 14.7378 19 13.3845 19 12V11.96C19.1933 11.84 19.3717 11.6983 19.535 11.535L21.661 9.41C21.882 10.236 22 11.104 22 12C22 17.523 17.523 22 12 22C6.477 22 2 17.523 2 12C2 6.477 6.477 2 12 2ZM11.586 7.017C11.586 7.868 11.544 8.731 11.59 9.581L11.05 10.121C10.8642 10.3068 10.7169 10.5273 10.6164 10.77C10.5158 11.0127 10.4641 11.2728 10.4641 11.5355C10.4641 11.7982 10.5158 12.0583 10.6164 12.301C10.7169 12.5437 10.8642 12.7642 11.05 12.95C11.2358 13.1358 11.4563 13.2831 11.699 13.3836C11.9417 13.4842 12.2018 13.5359 12.4645 13.5359C12.7272 13.5359 12.9873 13.4842 13.23 13.3836C13.4727 13.2831 13.6932 13.1358 13.879 12.95L14.419 12.41C15.269 12.456 16.131 12.414 16.983 12.414C16.904 13.3643 16.5549 14.2723 15.9768 15.0307C15.3988 15.7892 14.6159 16.3665 13.7205 16.6946C12.8251 17.0227 11.8545 17.0879 10.9233 16.8825C9.99204 16.6771 9.13896 16.2097 8.46465 15.5353C7.79034 14.861 7.32293 14.008 7.11753 13.0767C6.91214 12.1455 6.97734 11.1749 7.30544 10.2795C7.63354 9.38414 8.21085 8.60124 8.96929 8.02317C9.72773 7.44511 10.6357 7.09599 11.586 7.017ZM18.504 2.127C18.6865 2.20268 18.8425 2.33074 18.9524 2.49501C19.0622 2.65928 19.1209 2.8524 19.121 3.05V4.88H20.95C21.1478 4.88004 21.341 4.93871 21.5055 5.0486C21.6699 5.15848 21.798 5.31465 21.8737 5.49735C21.9493 5.68005 21.9692 5.88108 21.9306 6.07503C21.892 6.26898 21.7968 6.44715 21.657 6.587L18.12 10.12C17.9325 10.3075 17.6782 10.4129 17.413 10.413H15L13.172 12.242C12.9844 12.4296 12.7299 12.5351 12.4645 12.5351C12.1991 12.5351 11.9446 12.4296 11.757 12.242C11.5694 12.0544 11.4639 11.7999 11.4639 11.5345C11.4639 11.2691 11.5694 11.0146 11.757 10.827L13.586 9V6.586C13.5859 6.45452 13.6117 6.32431 13.662 6.20282C13.7123 6.08134 13.786 5.97096 13.879 5.878L17.414 2.343C17.5538 2.20307 17.7321 2.10776 17.9261 2.06913C18.1201 2.0305 18.3212 2.0503 18.504 2.126" fill="black"/>
</svg>
