<svg width="24" height="24" viewBox="0 0 24 24" fill="none" xmlns="http://www.w3.org/2000/svg">
<path d="M12 21C10.75 21 9.57933 20.7627 8.488 20.288C7.39667 19.8133 6.44667 19.1717 5.638 18.363C4.82933 17.5543 4.18767 16.6043 3.713 15.513C3.23833 14.4217 3.00067 13.2507 3 12C2.99933 10.7493 3.237 9.57867 3.713 8.488C4.189 7.39733 4.83033 6.44733 5.637 5.638C6.44367 4.82867 7.39367 4.187 8.487 3.713C9.58033 3.239 10.7513 3.00133 12 3C13.3667 3 14.6627 3.29167 15.888 3.875C17.1133 4.45833 18.1507 5.28333 19 6.35V4H21V10H15V8H17.75C17.0667 7.06667 16.225 6.33333 15.225 5.8C14.225 5.26667 13.15 5 12 5C10.05 5 8.396 5.67933 7.038 7.038C5.68 8.39667 5.00067 10.0507 5 12C4.99933 13.9493 5.67867 15.6037 7.038 16.963C8.39733 18.3223 10.0513 19.0013 12 19C13.75 19 15.2793 18.4333 16.588 17.3C17.8967 16.1667 18.6673 14.7333 18.9 13H20.95C20.7 15.2833 19.721 17.1877 18.013 18.713C16.305 20.2383 14.3007 21.0007 12 21ZM14.8 16.2L11 12.4V7H13V11.6L16.2 14.8L14.8 16.2Z" fill="black"/>
</svg>
