<svg width="20" height="20" viewBox="0 0 20 20" fill="none" xmlns="http://www.w3.org/2000/svg">
<path d="M2.727 3.333C1.974 3.333 1.364 3.93 1.364 4.667V15.333C1.364 16.07 1.974 16.667 2.727 16.667H17.273C18.026 16.667 18.636 16.07 18.636 15.333V4.667C18.636 3.93 18.026 3.333 17.273 3.333H2.727ZM17.273 2C18.779 2 20 3.194 20 4.667V15.333C20 16.806 18.779 18 17.273 18H2.727C1.221 18 0 16.806 0 15.333V4.667C0 3.194 1.221 2 2.727 2H17.273ZM8.167 13.133H4C3.9114 13.1319 3.82347 13.1484 3.74123 13.1813C3.65898 13.2143 3.58405 13.2631 3.5207 13.3251C3.45736 13.387 3.40685 13.4609 3.37207 13.5424C3.33729 13.6239 3.31891 13.7114 3.318 13.8C3.318 14.168 3.623 14.467 4 14.467H8.167C8.25551 14.4679 8.34334 14.4514 8.42547 14.4184C8.5076 14.3854 8.58241 14.3365 8.64565 14.2746C8.70889 14.2126 8.75931 14.1388 8.79403 14.0574C8.82874 13.976 8.84708 13.8885 8.848 13.8C8.84708 13.7115 8.82874 13.624 8.79403 13.5426C8.75931 13.4612 8.70889 13.3874 8.64565 13.3254C8.58241 13.2635 8.5076 13.2146 8.42547 13.1816C8.34334 13.1486 8.25551 13.1321 8.167 13.133ZM13.75 5.333C12.226 5.333 10.985 6.524 10.985 8C10.985 8.773 11.325 9.468 11.869 9.955C10.839 10.563 10.152 11.658 10.152 12.909C10.152 13.266 10.208 13.617 10.317 13.952C10.432 14.302 10.816 14.496 11.174 14.384C11.2585 14.3587 11.3371 14.3168 11.4052 14.2608C11.4733 14.2048 11.5296 14.1357 11.5708 14.0577C11.6119 13.9797 11.6371 13.8943 11.6449 13.8064C11.6526 13.7185 11.6428 13.63 11.616 13.546C11.5484 13.3405 11.5147 13.1253 11.516 12.909C11.516 11.734 12.513 10.776 13.75 10.776C14.987 10.776 15.985 11.734 15.985 12.909C15.985 13.0823 15.964 13.251 15.922 13.415C15.9009 13.5007 15.8971 13.5898 15.9107 13.677C15.9244 13.7642 15.9552 13.8478 16.0015 13.923C16.0477 13.9982 16.1084 14.0634 16.1801 14.1149C16.2518 14.1664 16.333 14.2032 16.419 14.223C16.5929 14.2666 16.777 14.2401 16.9315 14.1492C17.0861 14.0583 17.1987 13.9102 17.245 13.737C17.3137 13.4663 17.348 13.1903 17.348 12.909C17.348 11.658 16.661 10.563 15.631 9.953C16.175 9.468 16.515 8.773 16.515 8C16.515 6.524 15.275 5.333 13.75 5.333ZM8.167 9.633H4C3.9114 9.63194 3.82347 9.64837 3.74123 9.68133C3.65898 9.71429 3.58405 9.76314 3.5207 9.82509C3.45736 9.88704 3.40685 9.96088 3.37207 10.0424C3.33729 10.1239 3.31891 10.2114 3.318 10.3C3.318 10.668 3.623 10.967 4 10.967H8.167C8.25551 10.9679 8.34334 10.9514 8.42547 10.9184C8.5076 10.8854 8.58241 10.8365 8.64565 10.7746C8.70889 10.7126 8.75931 10.6388 8.79403 10.5574C8.82874 10.476 8.84708 10.3885 8.848 10.3C8.84708 10.2115 8.82874 10.124 8.79403 10.0426C8.75931 9.96117 8.70889 9.88739 8.64565 9.82545C8.58241 9.76351 8.5076 9.71464 8.42547 9.68162C8.34334 9.6486 8.25551 9.63208 8.167 9.633ZM13.75 6.667C14.527 6.667 15.152 7.267 15.152 8C15.152 8.734 14.527 9.333 13.75 9.333C12.973 9.333 12.348 8.733 12.348 8C12.348 7.266 12.973 6.667 13.75 6.667ZM8.167 6.133H4C3.9114 6.13194 3.82347 6.14837 3.74123 6.18133C3.65898 6.21429 3.58405 6.26314 3.5207 6.32509C3.45736 6.38704 3.40685 6.46088 3.37207 6.54237C3.33729 6.62385 3.31891 6.7114 3.318 6.8C3.318 7.168 3.623 7.467 4 7.467H8.167C8.25551 7.46792 8.34334 7.4514 8.42547 7.41838C8.5076 7.38536 8.58241 7.33649 8.64565 7.27455C8.70889 7.21261 8.75931 7.13883 8.79403 7.0574C8.82874 6.97598 8.84708 6.88851 8.848 6.8C8.84708 6.71149 8.82874 6.62402 8.79403 6.5426C8.75931 6.46117 8.70889 6.38739 8.64565 6.32545C8.58241 6.26351 8.5076 6.21464 8.42547 6.18162C8.34334 6.1486 8.25551 6.13208 8.167 6.133Z" fill="black"/>
</svg>
